<?xml version="1.0" standalone="no"?><svg xmlns="http://www.w3.org/2000/svg" viewBox="0 0 1440 320"><path fill="#273036" fill-opacity="1" d="M0,96L17.1,128C34.3,160,69,224,103,234.7C137.1,245,171,203,206,165.3C240,128,274,96,309,112C342.9,128,377,192,411,208C445.7,224,480,192,514,181.3C548.6,171,583,181,617,181.3C651.4,181,686,171,720,165.3C754.3,160,789,160,823,181.3C857.1,203,891,245,926,266.7C960,288,994,288,1029,282.7C1062.9,277,1097,267,1131,250.7C1165.7,235,1200,213,1234,208C1268.6,203,1303,213,1337,197.3C1371.4,181,1406,139,1423,117.3L1440,96L1440,0L1422.9,0C1405.7,0,1371,0,1337,0C1302.9,0,1269,0,1234,0C1200,0,1166,0,1131,0C1097.1,0,1063,0,1029,0C994.3,0,960,0,926,0C891.4,0,857,0,823,0C788.6,0,754,0,720,0C685.7,0,651,0,617,0C582.9,0,549,0,514,0C480,0,446,0,411,0C377.1,0,343,0,309,0C274.3,0,240,0,206,0C171.4,0,137,0,103,0C68.6,0,34,0,17,0L0,0Z"></path></svg>