<?xml version="1.0" standalone="no"?><svg xmlns="http://www.w3.org/2000/svg" viewBox="0 0 1440 320"><path fill="#20292f" fill-opacity="1" d="M0,288L17.1,272C34.3,256,69,224,103,218.7C137.1,213,171,235,206,234.7C240,235,274,213,309,186.7C342.9,160,377,128,411,128C445.7,128,480,160,514,160C548.6,160,583,128,617,128C651.4,128,686,160,720,165.3C754.3,171,789,149,823,154.7C857.1,160,891,192,926,213.3C960,235,994,245,1029,213.3C1062.9,181,1097,107,1131,101.3C1165.7,96,1200,160,1234,202.7C1268.6,245,1303,267,1337,272C1371.4,277,1406,267,1423,261.3L1440,256L1440,0L1422.9,0C1405.7,0,1371,0,1337,0C1302.9,0,1269,0,1234,0C1200,0,1166,0,1131,0C1097.1,0,1063,0,1029,0C994.3,0,960,0,926,0C891.4,0,857,0,823,0C788.6,0,754,0,720,0C685.7,0,651,0,617,0C582.9,0,549,0,514,0C480,0,446,0,411,0C377.1,0,343,0,309,0C274.3,0,240,0,206,0C171.4,0,137,0,103,0C68.6,0,34,0,17,0L0,0Z"></path></svg>