<?xml version="1.0" standalone="no"?><svg xmlns="http://www.w3.org/2000/svg" viewBox="0 0 1440 320"><path fill="#7DC7D4" fill-opacity="0.975" d="M0,160L48,256L96,320L144,128L192,224L240,256L288,224L336,192L384,224L432,192L480,224L528,256L576,320L624,96L672,64L720,224L768,64L816,128L864,64L912,64L960,0L1008,256L1056,256L1104,64L1152,192L1200,320L1248,96L1296,224L1344,192L1392,224L1440,64L1440,320L1392,320L1344,320L1296,320L1248,320L1200,320L1152,320L1104,320L1056,320L1008,320L960,320L912,320L864,320L816,320L768,320L720,320L672,320L624,320L576,320L528,320L480,320L432,320L384,320L336,320L288,320L240,320L192,320L144,320L96,320L48,320L0,320Z"></path></svg>