<?xml version="1.0" standalone="no"?><svg xmlns="http://www.w3.org/2000/svg" viewBox="0 0 1440 320"><path fill="#7DC7D4" fill-opacity="0.975" d="M0,288L48,0L96,96L144,160L192,320L240,128L288,128L336,224L384,128L432,320L480,32L528,256L576,64L624,192L672,160L720,320L768,64L816,96L864,64L912,224L960,256L1008,0L1056,128L1104,96L1152,64L1200,256L1248,256L1296,96L1344,160L1392,32L1440,320L1440,0L1392,0L1344,0L1296,0L1248,0L1200,0L1152,0L1104,0L1056,0L1008,0L960,0L912,0L864,0L816,0L768,0L720,0L672,0L624,0L576,0L528,0L480,0L432,0L384,0L336,0L288,0L240,0L192,0L144,0L96,0L48,0L0,0Z"></path></svg>