<?xml version="1.0" standalone="no"?><svg xmlns="http://www.w3.org/2000/svg" viewBox="0 0 1440 320"><path fill="#273036" fill-opacity="1" d="M0,288L17.1,266.7C34.3,245,69,203,103,181.3C137.1,160,171,160,206,149.3C240,139,274,117,309,138.7C342.9,160,377,224,411,234.7C445.7,245,480,203,514,181.3C548.6,160,583,160,617,170.7C651.4,181,686,203,720,208C754.3,213,789,203,823,213.3C857.1,224,891,256,926,240C960,224,994,160,1029,149.3C1062.9,139,1097,181,1131,202.7C1165.7,224,1200,224,1234,213.3C1268.6,203,1303,181,1337,165.3C1371.4,149,1406,139,1423,133.3L1440,128L1440,320L1422.9,320C1405.7,320,1371,320,1337,320C1302.9,320,1269,320,1234,320C1200,320,1166,320,1131,320C1097.1,320,1063,320,1029,320C994.3,320,960,320,926,320C891.4,320,857,320,823,320C788.6,320,754,320,720,320C685.7,320,651,320,617,320C582.9,320,549,320,514,320C480,320,446,320,411,320C377.1,320,343,320,309,320C274.3,320,240,320,206,320C171.4,320,137,320,103,320C68.6,320,34,320,17,320L0,320Z"></path></svg>